<?xml version="1.0" standalone="no"?><!DOCTYPE svg PUBLIC "-//W3C//DTD SVG 1.1//EN" "http://www.w3.org/Graphics/SVG/1.1/DTD/svg11.dtd"><svg t="1732588814454" class="icon" viewBox="0 0 1024 1024" version="1.1" xmlns="http://www.w3.org/2000/svg" p-id="4606" xmlns:xlink="http://www.w3.org/1999/xlink" width="200" height="200"><path d="M607.573333 334.506667c-66.56 0-121.173333-54.613333-121.173333-121.173334s54.613333-121.173333 121.173333-121.173333 121.173333 54.613333 121.173334 121.173333-56.32 121.173333-121.173334 121.173334z m0-189.44c-37.546667 0-69.973333 30.72-69.973333 69.973333s30.72 69.973333 69.973333 69.973333 69.973333-30.72 69.973334-69.973333-32.426667-69.973333-69.973334-69.973333zM797.013333 930.133333c-92.16 0-167.253333-75.093333-167.253333-167.253333s75.093333-167.253333 167.253333-167.253333 167.253333 75.093333 167.253334 167.253333-75.093333 167.253333-167.253334 167.253333z m0-285.013333c-64.853333 0-116.053333 52.906667-116.053333 116.053333 0 64.853333 52.906667 116.053333 116.053333 116.053334 64.853333 0 116.053333-52.906667 116.053334-116.053334 0-63.146667-52.906667-116.053333-116.053334-116.053333zM226.986667 930.133333c-92.16 0-167.253333-75.093333-167.253334-167.253333s75.093333-167.253333 167.253334-167.253333 167.253333 75.093333 167.253333 167.253333c1.706667 92.16-73.386667 167.253333-167.253333 167.253333z m0-285.013333c-64.853333 0-116.053333 52.906667-116.053334 116.053333 0 64.853333 52.906667 116.053333 116.053334 116.053334 64.853333 0 116.053333-52.906667 116.053333-116.053334 1.706667-63.146667-51.2-116.053333-116.053333-116.053333zM488.106667 822.613333c-3.413333 0-6.826667 0-8.533334-1.706666-13.653333-5.12-20.48-20.48-15.36-32.426667l63.146667-165.546667-208.213333-85.333333c-6.826667-3.413333-13.653333-10.24-15.36-17.066667-1.706667-8.533333 0-17.066667 5.12-22.186666l141.653333-165.546667c8.533333-10.24 25.6-11.946667 35.84-3.413333l134.826667 112.64h157.013333c13.653333 0 25.6 11.946667 25.6 25.6s-11.946667 25.6-25.6 25.6h-165.546667c-6.826667 0-11.946667-1.706667-17.066666-5.12l-122.88-102.4-102.4 119.466666 197.973333 81.92c13.653333 5.12 18.773333 20.48 13.653333 32.426667L512 805.546667c-3.413333 10.24-13.653333 17.066667-23.893333 17.066666z" fill="#ffffff" p-id="4607"></path></svg>