<?xml version="1.0" standalone="no"?><!DOCTYPE svg PUBLIC "-//W3C//DTD SVG 1.1//EN" "http://www.w3.org/Graphics/SVG/1.1/DTD/svg11.dtd"><svg t="1728042779874" class="icon" viewBox="0 0 1024 1024" version="1.1" xmlns="http://www.w3.org/2000/svg" p-id="28568" xmlns:xlink="http://www.w3.org/1999/xlink" width="200" height="200"><path d="M713 607.9s25.2 330.7-323.7 315.2C50.1 958.3 68.7 609.7 68.7 609.7c290.7-13.6 320.7 234.8 320.7 234.8S404.8 608.4 713 607.9m-3.2-409.4c-27 0-48.9 22.5-48.9 50.3 0 27.7 21.9 50.3 48.9 50.3s49-22.6 49-50.3c0-27.7-22-50.3-49-50.3m229.8-62.1l1.1 0.3-83.1 91.2v372.6c-21.1 202.4-133.9 281.5-242 309.9 156.2-121.9 139.5-343.6 139.5-343.6-201.7 0.3-309.6 76-367.3 153.1-16-23.2-36.6-46.5-62.6-68V399.5C364.5 98.3 654.3 98.1 654.3 98.1h285.5c13.6 4.2 25.1 14.3-0.2 38.3z m0 0" p-id="28569" fill="#ffffff"></path></svg>