<?xml version="1.0" standalone="no"?><!DOCTYPE svg PUBLIC "-//W3C//DTD SVG 1.1//EN" "http://www.w3.org/Graphics/SVG/1.1/DTD/svg11.dtd"><svg t="1728042852955" class="icon" viewBox="0 0 1024 1024" version="1.1" xmlns="http://www.w3.org/2000/svg" p-id="32279" xmlns:xlink="http://www.w3.org/1999/xlink" width="200" height="200"><path d="M872.296 558.46c-3.792 0-8.533-0.949-12.326-2.845-14.222-6.637-19.91-23.704-13.274-37.926 13.274-26.548 19.911-54.993 19.911-85.333 0-107.141-87.23-194.37-194.37-194.37-78.696 0-149.807 47.407-180.148 120.414-5.689 14.222-22.756 21.807-36.978 15.17-14.222-5.689-21.807-22.755-15.17-36.977 38.874-94.815 129.896-155.497 232.296-155.497 138.43 0 251.26 112.83 251.26 251.26 0 38.874-8.534 75.851-25.6 109.985-4.741 10.43-15.171 16.118-25.6 16.118z" fill="#ffffff" p-id="32280"></path><path d="M938.667 667.496c-8.534 0-17.067-3.792-22.756-11.377L759.467 452.267 635.259 606.815c-5.689 6.637-14.222 11.378-23.703 10.43-9.482 0-17.067-4.741-22.756-12.326L354.607 255.052C106.193 667.496 105.244 667.496 85.333 667.496c-16.118 0-28.444-12.326-28.444-28.444 0-7.585 2.844-14.222 7.585-19.911 17.067-23.704 166.874-269.274 264.533-431.408 4.741-8.533 14.223-13.274 23.704-13.274 10.43 0 18.963 4.741 24.652 12.326l237.985 353.66 123.26-152.652c5.688-6.637 14.222-10.43 22.755-10.43s17.067 3.793 21.807 11.378l178.252 233.244c9.482 12.326 7.585 30.34-5.689 39.822-4.74 3.793-11.377 5.69-17.066 5.69zM719.644 737.66H85.334c-16.12 0-28.445-12.326-28.445-28.444s12.326-28.445 28.444-28.445h634.311c16.119 0 28.445 12.326 28.445 28.445s-13.274 28.444-28.445 28.444zM680.77 850.49H208.593c-16.119 0-28.445-12.326-28.445-28.445s12.326-28.444 28.445-28.444h471.23c16.118 0 28.444 12.326 28.444 28.444 0.948 15.17-12.326 28.445-27.497 28.445z m223.763 0h-117.57c-16.119 0-28.444-12.326-28.444-28.445s12.325-28.444 28.444-28.444h117.57c16.119 0 28.445 12.326 28.445 28.444 0 15.17-12.326 28.445-28.445 28.445z" fill="#ffffff" p-id="32281"></path></svg>