<?xml version="1.0" standalone="no"?><!DOCTYPE svg PUBLIC "-//W3C//DTD SVG 1.1//EN" "http://www.w3.org/Graphics/SVG/1.1/DTD/svg11.dtd"><svg t="1734009098252" class="icon" viewBox="0 0 1024 1024" version="1.1" xmlns="http://www.w3.org/2000/svg" p-id="5890" xmlns:xlink="http://www.w3.org/1999/xlink" width="200" height="200"><path d="M338.225 423.177c-19.527 0-35.415 15.888-35.415 35.415s15.888 35.415 35.415 35.415 35.415-15.888 35.415-35.415c-0.001-19.528-15.888-35.415-35.415-35.415z m0 52.054c-9.177 0-16.639-7.462-16.639-16.639s7.462-16.639 16.639-16.639 16.639 7.462 16.639 16.639c0 9.176-7.462 16.639-16.639 16.639zM512.002 423.177c-19.532 0-35.419 15.888-35.419 35.415s15.888 35.415 35.419 35.415c19.527 0 35.415-15.888 35.415-35.415 0-19.528-15.888-35.415-35.415-35.415z m0 52.054c-9.177 0-16.644-7.462-16.644-16.639s7.467-16.639 16.644-16.639 16.639 7.462 16.639 16.639c0.001 9.176-7.462 16.639-16.639 16.639zM685.775 423.177c-19.527 0-35.415 15.888-35.415 35.415s15.888 35.415 35.415 35.415 35.415-15.888 35.415-35.415c0-19.528-15.888-35.415-35.415-35.415z m0 52.054c-9.177 0-16.639-7.462-16.639-16.639s7.462-16.639 16.639-16.639 16.639 7.462 16.639 16.639c0 9.176-7.462 16.639-16.639 16.639z" fill="#2c2c2c" p-id="5891"></path><path d="M717.614 205.849H306.386c-97.026 0-175.964 78.938-175.964 175.964v153.558c0 97.026 78.938 175.964 175.964 175.964h117.603l88.014 106.817 88.01-106.817h117.603c97.026 0 175.964-78.938 175.964-175.964V381.812c-0.002-97.025-78.94-175.963-175.966-175.963z m157.189 329.522c0 86.676-70.513 157.189-157.189 157.189H591.156l-79.154 96.063-79.158-96.063H306.386c-86.676 0-157.189-70.513-157.189-157.189V381.812c0-86.676 70.513-157.189 157.189-157.189h411.229c86.676 0 157.189 70.513 157.189 157.189v153.559z" fill="#2c2c2c" p-id="5892"></path></svg>