<?xml version="1.0" standalone="no"?><!DOCTYPE svg PUBLIC "-//W3C//DTD SVG 1.1//EN" "http://www.w3.org/Graphics/SVG/1.1/DTD/svg11.dtd"><svg t="1734262531834" class="icon" viewBox="0 0 1024 1024" version="1.1" xmlns="http://www.w3.org/2000/svg" p-id="54635" xmlns:xlink="http://www.w3.org/1999/xlink" width="200" height="200"><path d="M92.432658 87.932102L928.980503 511.23315 92.603069 935.897487l141.27076-381.209519a119.287735 119.287735 0 0 0 0-82.81977L92.432658 87.932102M57.327981 0a51.123315 51.123315 0 0 0-51.123315 51.123315l163.765019 444.261608a51.123315 51.123315 0 0 1 0 35.615909L6.204666 972.706274a51.123315 51.123315 0 0 0 51.123315 51.123315 52.657014 52.657014 0 0 0 23.175903-5.623565l908.972541-460.109835a51.123315 51.123315 0 0 0 0-91.510734L80.674295 5.623565A51.123315 51.123315 0 0 0 57.327981 0z" p-id="54636"></path><path d="M960.506547 477.832584H176.615716v68.16442h783.890831v-68.16442z" p-id="54637"></path></svg>