<?xml version="1.0" standalone="no"?><!DOCTYPE svg PUBLIC "-//W3C//DTD SVG 1.1//EN" "http://www.w3.org/Graphics/SVG/1.1/DTD/svg11.dtd"><svg t="1731661897444" class="icon" viewBox="0 0 1088 1024" version="1.1" xmlns="http://www.w3.org/2000/svg" p-id="6384" xmlns:xlink="http://www.w3.org/1999/xlink" width="212.5" height="200"><path d="M848.489 0.864c13.545-0.135 21.58 5.69 24.378 16.107 0.908 3.371 0.594 7.85 0.594 11.968v20.985c0 26.907 4.269 47.368-19.948 51.274-5.035 0.81-9.595-1-12.562-2.517-5.273-2.697-9.239-6.91-11.076-13-1.134-3.755-0.74-9.131-0.74-13.886V46.37c0-9.764-1.486-25.016 1.475-32.208 2.334-5.673 7.078-9.882 12.86-12.119l5.019-1.178z m-2.367 353.563c29.933-0.308 24.53 26.615 24.53 55.256 0 11.92 1.567 27.404-3.102 34.871-3.825 6.106-9.67 9.24-18.618 10.342-4.474 0.55-9.013-1.53-11.67-3.102-4.161-2.464-7.543-5.684-9.456-10.341-1.832-4.452-1.48-11.12-1.48-17.436v-24.821c0-9.38-1.432-24 1.329-31.03 2.269-5.77 6.92-10.152 12.708-12.41l5.76-1.33z m110.962-42.403c7.045-0.103 11.913 2.231 15.809 5.316l31.321 30.144c5.047 4.068 13.643 11.697 16.841 17.29 5.69 9.94 0.216 21.822-6.5 26.588-6.461 4.592-18.035 5.327-25.264 0.886-4.171-2.561-6.921-6.749-10.638-9.747l-26.594-25.416c-5.155-4.155-11.725-9.536-14.48-15.955-5.133-11.94 2.788-23.476 10.936-27.037 2.577-1.13 5.586-0.918 8.569-2.07z m-218.52-1.924c14.697-0.13 28.29 13.427 21.57 29.106-2.756 6.43-9.326 11.8-14.48 15.96l-26.151 24.968c-4.355 3.512-7.457 8.429-12.703 11.082-7.456 3.766-17.981 2.21-23.79-1.918-8.444-6.008-11.789-19.386-4.576-29.258l8.861-8.569 9.753-9.31 22.903-21.865c2.761-2.232 4.825-5.187 7.975-7.089 2.015-1.216 4.544-2.08 7.094-2.658l3.544-0.449z m264.316-102.09h47.135c14.875 0 23.984-0.729 31.473 6.797 3.874 3.89 7.813 11.563 5.317 19.797-2.54 8.402-8.932 13.778-18.176 15.512l-16.398 0.151h-27.48c-11.373 0-24.956 1.21-32.061-3.106-9.223-5.598-14.318-19.38-6.354-30.284 2.507-3.437 6.591-6.43 11.081-7.835l5.468-1.032z m-370.695-2.658h47.276c14.712 0 22.33-1.059 30.738 5.614 4.82 3.82 9.185 12.265 6.5 21.126-2.427 7.996-8.775 13.442-17.436 15.22-5.09 1.043-11.827 0.292-17.436 0.292H654.5c-12.292 0-25.659 1.043-32.948-3.836-8.612-5.77-12.783-19.322-5.322-29.555a22.568 22.568 0 0 1 10.936-7.829l5.025-1.032z m211.279 609.011h53.49c10.195 0 21.72-0.843 30.43 1.032 22.13 4.771 40.052 14.615 51.712 29.846 4.068 5.312 7.59 11.282 10.05 18.17 6.267 17.593 0.594 35.752-7.095 47.277-12.168 18.24-31.391 29.781-57.029 34.58-8.666 1.62-19.645 0.718-29.403 0.734 9.763 28.344-7.5 56.245-22.606 67.819-4.555 3.49-9.077 7.105-15.512 8.715-3.307 0.832-7.872 0.443-11.822 0.443H323.694c-21.277 0-44.131 1.134-61.756-2.81-26.815-5.98-49.157-17.695-59.098-40.48-4.593-10.508-7.132-25.577-3.102-39.003a72.05 72.05 0 0 1 7.83-17.582c10.99-17.549 28.544-28.863 50.528-35.46 5.728-1.718 11.914-2.161 18.317-3.252l15.22-0.443h26.15c2.345 0 13.805 0.567 14.778-0.292l0.74-5.17 2.215-9.31c3.323-10.563 8.191-19.959 14.183-27.923 10.514-13.983 24.854-24.994 44.326-29.998 9.812-2.517 23.514-1.62 35.606-1.62h62.637c0.27-10.434 6.451-20.721 11.082-27.188 8.493-11.85 20.774-20.37 36.94-24.53 7.77-1.994 17.511-1.767 27.334-1.767h148.188L455.776 267.698h-0.146l-291.8 519.331-67.078 119.38c-6.916 11.746-10.423 25.859-26.15 28.96-3.848 0.756-8.575 0.124-11.525-1.037-8.483-3.334-17.177-13.146-13.151-25.854 1.631-5.149 5.078-9.758 7.683-14.183l11.227-20.39 95.147-169.169-71.06-0.74c-11.509-0.724-23.979 1.016-33.985-1.189-15.669-3.441-29.57-10.352-38.118-20.974-5.182-6.435-9.558-12.967-12.854-21.423-4.593-11.79-3.815-30.349 0.594-41.517 8.607-21.823 25.151-35.714 50.086-41.225 10.503-2.323 24.946-1.048 37.08-1.026v-0.152c-6.429-18.58 1.816-39.852 9.607-50.826 8.9-12.546 21.564-21.747 38.562-26.15 13.156-3.415 32.148-1.924 48.162-1.924h88.361L405.842 267.4l22.163-39.442c3.782-6.45 6.683-14.599 11.67-19.948 3.55-3.809 10.471-8.428 18.765-7.094 15.301 2.47 17.776 13.119 24.232 24.233l32.797 61.605L659.08 556.397l1.188-1.038 59.833-68.996c5.35-6.7 12.298-16.539 26.005-14.037 11.346 2.074 15.182 9.763 20.683 17.581l17.878 25.562 96.628 138.144 30.138-29.695c5.96-5.96 10.498-12.19 20.834-13.886 19.067-3.134 27.912 21.347 34.574 32.056l70.325 116.273 46.244 76.685c5.295 8.677 5.517 21.245-2.36 27.63-2.146 1.73-4.501 3.475-7.24 4.577-5.998 2.415-14.848 1.508-19.651-1.329-6.462-3.809-9.412-10.465-13.297-16.841l-11.233-18.619-99.286-164.44-3.836 3.841-8.72 8.57-14.037 13.74c-7.019 7.023-11.887 14.214-24.227 16.1-5.603 0.865-11.293-1.837-14.335-3.987-4.452-3.14-7.05-8.094-10.195-12.557l-16.841-24.081-97.363-139.03-59.843 68.85 84.368 158.681c9.477-0.108 19.877-0.605 27.625 1.33 26.707 6.645 48.611 25.696 50.53 56.882z m-289.288-15.96l-5.468 1.188c-5.62 2.194-10.287 6.592-12.113 12.552-1.973 6.45 0.907 11.967 1.772 17.884 1.475 10.076-8.32 18.667-15.215 20.828-7.435 2.323-20.872 1.032-30.144 1.032H431.55c-15.739 0-27.69-1.507-37.086 5.17-8.483 6.03-14.75 15.87-17.436 27.632-1.55 6.797 0.422 13.383 1.33 19.207 1.696 10.86-8.413 19.338-15.81 21.57-3.193 0.966-7.537 0.74-11.67 0.74h-53.339c-8.855 0-17.808-0.303-24.967 1.48-7.418 1.837-13.48 4.679-18.765 8.57-5.916 4.354-16.5 16.37-10.341 27.182 8.899 15.625 33.445 17.29 58.066 17.29h544.3c2.107-2.772 4.71-4.95 6.202-8.43l1.626-5.759c1.81-9.671-3.658-17.662-8.569-21.423-3.755-2.874-7.77-4.668-10.487-8.57-6.181-8.85-3.463-21.822 3.69-27.479 8.32-6.58 20.51-5.316 35.314-5.316h30.435c5.511 0 11.725 0.475 16.399-0.595a45.061 45.061 0 0 0 16.252-7.24c4.068-2.885 12.308-9.439 10.935-17.284-1.145-6.527-6.089-10.811-10.643-14.037-5.247-3.717-11.077-6.43-18.76-7.834l-26.302-0.146h-53.776c-7.899 0-18.894 1.167-25.859-0.443-9.336-2.15-15.722-8.375-17.43-18.17-1.291-7.392 2.902-11.509 4.134-16.842 2.517-10.892-5.209-18.716-12.114-21.423-5.76-2.258-15.598-1.334-23.34-1.334H554.175z m-399.51-258.556l-4.43 0.74c-3.696 1.103-7.159 3.053-9.601 5.468-1.934 1.907-3.89 4.285-5.025 6.943-3.96 9.218 0.081 19.737 5.76 24.233 4.22 3.333 8.672 5.322 11.524 10.044 5.474 9.055 2 21.093-4.581 26.296-7.176 5.679-15.323 5.322-28.215 5.322H81.386c-6.165 0-13.962-0.891-19.354 0.443-3.88 0.957-6.775 2.777-9.455 4.874-5.009 3.911-9.899 12.335-7.094 21.574 2.669 8.796 9.72 14.204 19.65 15.81l23.79 0.145 94.85 0.886 68.85-122.778h-97.956zM844.35 123.794c52.733-0.821 89.836 27.031 105.494 62.94 10.973 25.172 11.757 55.461 0.594 81.26-12.384 28.599-36.384 49.411-67.673 59.099-7.823 2.42-16.079 3.193-25.264 4.582h-12.708l-10.05-0.74c-8.293-1.503-16.09-3.08-23.043-5.766-31.333-12.108-52.626-32.185-64.712-63.528-4.766-12.346-8.17-31.58-5.025-48.314 1.383-7.353 2.842-14.361 5.316-20.683 11.833-30.203 33.91-50.648 64.275-62.35 6.44-2.486 13.577-3.89 20.98-5.322l11.816-1.178z m1.183 42.251l-6.646 0.74c-4.138 0.843-8.299 1.675-11.967 3.107-18.014 7.024-31.04 19.284-38.124 37.227-1.491 3.793-2.258 8.05-3.101 12.416-1.805 9.385 0.238 20.332 2.658 27.183 6.83 19.305 19.878 31.542 38.713 38.858 6.683 2.594 18.83 5.549 28.809 3.836 5.489-0.935 10.481-1.556 15.22-3.096 17.435-5.678 31.359-18.192 38.415-34.282 1.891-4.322 3.193-9.071 4.285-14.183 2.847-13.388-1.038-27.669-5.468-36.346-10.995-21.525-30.095-35.552-62.794-35.46z m156.023-104.008c15.317-0.2 28.917 12.919 22.309 28.96-2.615 6.344-10.822 13.286-15.955 17.43l-26.89 25.708c-3.389 2.734-5.842 6.273-9.753 8.57-6.71 3.943-17.668 3.063-23.639-0.887-8.374-5.543-13.242-18.873-5.91-29.252 2.658-3.766 6.775-7.315 10.34-10.195l10.196-9.753 20.24-19.353c2.999-2.42 5.209-5.733 8.57-7.835 1.89-1.177 4.316-2.177 6.645-2.81l3.847-0.588z m-305.097-1.923c6.786-0.103 11.476 1.372 15.366 4.139a932065.468 932065.468 0 0 0 39.442 37.675c3.501 2.82 7.397 6.273 9.758 10.19 5.835 9.682 1.22 21.866-5.62 26.89-6.364 4.68-17.808 5.982-25.41 1.481-4.344-2.572-7.126-6.824-10.935-9.898l-26.594-25.416c-4.593-3.701-11.914-9.92-14.329-15.512-4.933-11.411 1.27-22.104 8.861-26.594 2.831-1.675 5.997-1.583 9.455-2.955z" fill="#0e932e" p-id="6385"></path></svg>