<?xml version="1.0" standalone="no"?><!DOCTYPE svg PUBLIC "-//W3C//DTD SVG 1.1//EN" "http://www.w3.org/Graphics/SVG/1.1/DTD/svg11.dtd"><svg t="1734254193546" class="icon" viewBox="0 0 1024 1024" version="1.1" xmlns="http://www.w3.org/2000/svg" p-id="33091" xmlns:xlink="http://www.w3.org/1999/xlink" width="200" height="200"><path d="M307.527069 254.753735h90.762465v567.437301h-90.762465z" fill="#FB9538" p-id="33092"></path><path d="M274.350638 254.753735L352.908302 62.571093l78.557663 192.182642z" fill="#89C6FC" p-id="33093"></path><path d="M367.519683 354.11113h-29.222763v-65.321471c0-7.735437 6.532147-13.923787 14.611382-13.923787s14.611382 6.18835 14.611381 13.923787v65.321471zM367.519683 472.893067h-29.222763v-65.321471c0-7.735437 6.532147-13.923787 14.611382-13.923787s14.611382 6.18835 14.611381 13.923787v65.321471z" fill="#D68D4C" p-id="33094"></path><path d="M307.527069 254.753735h90.762465v13.57999h-90.762465z" fill="#FB9538" p-id="33095"></path><path d="M352.908302 62.571093l-24.065805 192.182642h-54.491859z" fill="#27A2FB" p-id="33096"></path><path d="M747.243705 271.084103h90.762465v567.4373h-90.762465zM714.067274 271.084103l78.557663-192.182643 78.557664 192.182643z" fill="#FB9538" p-id="33097"></path><path d="M807.236319 398.976666h-29.222763v-65.32147c0-7.735437 6.532147-13.923787 14.611381-13.923788s14.611382 6.18835 14.611382 13.923788v65.32147zM747.243705 271.084103h90.762465v13.57999h-90.762465zM792.624937 78.90146l-24.065805 192.182643H714.067274zM197.511961 356.173913h90.762464v567.437301h-90.762464z" fill="#FB9538" p-id="33098"></path><path d="M164.163631 356.173913l78.557664-192.010744 78.557663 192.010744z" fill="#89C6FC" p-id="33099"></path><path d="M609.037225 192.010744h90.762465v567.4373h-90.762465z" fill="#FB9538" p-id="33100"></path><path d="M575.860794 192.010744L654.418458 0l78.385764 192.010744z" fill="#89C6FC" p-id="33101"></path><path d="M668.857941 291.368138h-29.222764v-65.32147c0-7.735437 6.532147-13.923787 14.611382-13.923787s14.611382 6.18835 14.611382 13.923787v65.32147zM668.857941 411.869062h-29.222764v-65.321471c0-7.735437 6.532147-13.923787 14.611382-13.923787s14.611382 6.18835 14.611382 13.923787v65.321471zM668.857941 532.369985h-29.222764v-65.321471c0-7.735437 6.532147-13.923787 14.611382-13.923787s14.611382 6.18835 14.611382 13.923787v65.321471zM257.332676 484.582172h-29.222763v-65.32147c0-7.735437 6.532147-13.923787 14.611382-13.923787s14.611382 6.18835 14.611381 13.923787v65.32147z" fill="#D68D4C" p-id="33102"></path><path d="M438.341909 345.344301H585.143319v644.447876h-146.80141z" fill="#FB9538" p-id="33103"></path><path d="M384.537645 345.344301l127.204969-146.80141 127.03307 146.80141z" fill="#89C6FC" p-id="33104"></path><path d="M494.896551 458.109787h-33.176431v-74.260198c0-8.766829 7.39164-15.814672 16.502266-15.814672s16.502266 7.047843 16.502266 15.814672v74.260198zM494.896551 593.050193h-33.176431v-74.260198c0-8.766829 7.39164-15.814672 16.502266-15.814672s16.502266 7.047843 16.502266 15.814672v74.260198zM561.59321 458.109787H528.416779v-74.260198c0-8.766829 7.39164-15.814672 16.502266-15.814672s16.502266 7.047843 16.502266 15.814672v74.260198zM561.59321 593.050193H528.416779v-74.260198c0-8.766829 7.39164-15.814672 16.502266-15.814672s16.502266 7.047843 16.502266 15.814672v74.260198z" fill="#D68D4C" p-id="33105"></path><path d="M134.425172 684.156455h754.634884v339.155951h-754.634884z" fill="#FFC871" p-id="33106"></path><path d="M145.082886 684.156455h42.458956v9.110626H145.082886zM214.186126 684.156455h42.458956v9.110626h-42.458956zM283.289366 648.229646h42.458956v45.037435h-42.458956zM352.392606 648.229646h42.458956v45.037435h-42.458956zM421.323947 648.229646h42.458956v45.037435h-42.458956zM490.427187 648.229646h42.458956v45.037435h-42.458956zM559.530427 648.229646h42.458956v45.037435h-42.458956zM628.633667 648.229646H671.092622v45.037435h-42.458955zM697.736907 648.229646h42.458955v45.037435h-42.458955zM766.840146 684.156455h42.458956v9.110626h-42.458956zM835.771488 684.156455h42.458956v9.110626h-42.458956z" fill="#FFC871" p-id="33107"></path><path d="M134.425172 684.156455h130.299144v339.155951H134.425172zM758.760912 684.156455h130.299144v339.155951H758.760912z" fill="#FB9538" p-id="33108"></path><path d="M31.286008 555.576297H244.784078v467.736109H31.286008z" fill="#FFC871" p-id="33109"></path><path d="M0.000462 441.091825H36.786764v39.020983H0.000462zM59.821177 441.091825h36.786302v39.020983H59.821177zM119.641892 441.091825h36.786302v39.020983H119.641892zM179.462607 441.091825h36.786302v39.020983H179.462607zM239.283323 441.091825h36.786301v39.020983h-36.786301z" fill="#EF5C52" p-id="33110"></path><path d="M0.000462 479.94091h276.069162v75.635387H0.000462z" fill="#FB8276" p-id="33111"></path><path d="M778.529252 555.576297h213.498069v467.736109H778.529252z" fill="#FFC871" p-id="33112"></path><path d="M747.243705 441.091825h36.786302v39.020983h-36.786302zM807.06442 441.091825h36.786302v39.020983h-36.786302zM866.885136 441.091825h36.786301v39.020983h-36.786301zM926.705851 441.091825h36.786301v39.020983h-36.786301zM986.526566 441.091825h36.786302v39.020983h-36.786302z" fill="#EF5C52" p-id="33113"></path><path d="M747.243705 479.94091h276.069163v75.635387H747.243705z" fill="#FB8276" p-id="33114"></path><path d="M197.511961 356.173913h90.762464v13.57999h-90.762464zM609.037225 192.010744h90.762465v13.57999h-90.762465zM438.341909 345.344301H585.143319v13.57999h-146.80141zM31.286008 555.576297H244.784078v13.57999H31.286008zM778.529252 555.576297h213.498069v13.57999H778.529252z" fill="#FB9538" p-id="33115"></path><path d="M242.721295 164.163169l-23.893907 192.010744H164.163631zM654.418458 0l-24.065805 192.010744h-54.491859zM511.742614 198.542891l-51.053886 146.80141h-76.151083z" fill="#27A2FB" p-id="33116"></path><path d="M614.366082 874.620111v148.692295H408.947247v-148.692295c0-53.804264 46.068827-97.638409 102.795367-97.638409 56.554642 0 102.623468 43.834145 102.623468 97.638409z" fill="#CC937A" p-id="33117"></path><path d="M511.742614 795.031056c-46.240725 0-83.88652 35.583012-83.88652 79.589055v148.692295H595.457236v-148.692295c0-44.006043-37.473896-79.589055-83.714622-79.589055z" fill="#8F6955" p-id="33118"></path><path d="M117.40721 703.924794h-29.222763v-65.32147c0-7.735437 6.532147-13.923787 14.611382-13.923787s14.611382 6.18835 14.611381 13.923787v65.32147zM935.128882 703.924794h-29.222763v-65.32147c0-7.735437 6.532147-13.923787 14.611382-13.923787s14.611382 6.18835 14.611381 13.923787v65.32147z" fill="#D68D4C" p-id="33119"></path><path d="M342.078689 763.401712h-29.222763V734.694645c0-7.735437 6.532147-13.923787 14.611382-13.923787s14.611382 6.18835 14.611381 13.923787v28.707067zM434.216342 763.401712h-29.222763V734.694645c0-7.735437 6.532147-13.923787 14.611382-13.923787s14.611382 6.18835 14.611381 13.923787v28.707067zM526.353996 763.401712h-29.222763V734.694645c0-7.735437 6.532147-13.923787 14.611381-13.923787s14.611382 6.18835 14.611382 13.923787v28.707067zM618.31975 763.401712h-29.222763V734.694645c0-7.735437 6.532147-13.923787 14.611382-13.923787s14.611382 6.18835 14.611381 13.923787v28.707067zM710.457403 763.401712h-29.222763V734.694645c0-7.735437 6.532147-13.923787 14.611382-13.923787s14.611382 6.18835 14.611381 13.923787v28.707067z" fill="#D68D4C" p-id="33120"></path><path d="M505.726163 112.937385h11.861004v140.61306h-11.861004z" fill="#89C6FC" p-id="33121"></path><path d="M492.48997 112.937385a19.252644 18.393151 0 1 0 38.505288 0 19.252644 18.393151 0 1 0-38.505288 0Z" fill="#FBD307" p-id="33122"></path></svg>