<?xml version="1.0" standalone="no"?><!DOCTYPE svg PUBLIC "-//W3C//DTD SVG 1.1//EN" "http://www.w3.org/Graphics/SVG/1.1/DTD/svg11.dtd"><svg t="1734254257899" class="icon" viewBox="0 0 1024 1024" version="1.1" xmlns="http://www.w3.org/2000/svg" p-id="39778" xmlns:xlink="http://www.w3.org/1999/xlink" width="200" height="200"><path d="M714.34 569.472c0 0 25.588 335.947-328.814 320.217-344.666 35.791-325.812-318.316-325.812-318.316 295.354-13.83 325.812 238.499 325.812 238.499 0 0 15.644-239.872 328.814-240.398M711.025 153.603c-27.454 0-49.728 22.911-49.728 51.1s22.272 51.1 49.728 51.1c27.454 0 49.829-22.911 49.829-51.1 0-28.191-22.375-51.1-49.829-51.1M944.533 90.466l1.141 0.315-84.431 92.697v378.495c-21.443 205.664-136.022 286.007-245.835 314.831 158.71-123.842 141.721-349.037 141.721-349.037-204.914 0.315-314.519 77.175-373.156 155.516-16.265-23.546-37.19-47.191-63.609-69.049v-256.447c39.885-305.965 334.305-306.174 334.305-306.174h290.070c13.779 4.222 25.483 14.465-0.207 38.853z" fill="#1b9bca" p-id="39779"></path></svg>