<?xml version="1.0" standalone="no"?><!DOCTYPE svg PUBLIC "-//W3C//DTD SVG 1.1//EN" "http://www.w3.org/Graphics/SVG/1.1/DTD/svg11.dtd"><svg t="1734254275139" class="icon" viewBox="0 0 1024 1024" version="1.1" xmlns="http://www.w3.org/2000/svg" p-id="42112" xmlns:xlink="http://www.w3.org/1999/xlink" width="200" height="200"><path d="M339.476192 936.050528c-23.049334 0-41.145054-18.135794-41.145054-41.200713v-24.710186h82.290107v24.710186c0 23.067145-18.117983 41.200712-41.145053 41.200713z m345.626465 0c-23.047108 0-41.145054-18.135794-41.145053-41.200713v-24.710186h82.290107v24.710186c-0.002226 23.067145-18.102399 41.200712-41.145054 41.200713zM141.990621 491.14918c-13.171048 0-24.694602-11.541365-24.694602-24.712412v-82.396972c0-13.186632 11.523554-24.727997 24.694602-24.727997 13.153237 0 24.676791 11.541365 24.676791 24.727997v82.396972c0.002226 13.173274-11.521327 24.712413-24.676791 24.712412z m740.613192 0c-13.171048 0-24.694602-11.541365-24.694602-24.712412v-82.396972c0-13.186632 11.523554-24.727997 24.694602-24.727997 13.153237 0 24.676791 11.541365 24.676791 24.727997v82.396972c0 13.173274-11.523554 24.712413-24.676791 24.712412zM759.166426 145.113067H265.410197c-46.069725 0-82.290107 36.253777-82.290107 82.379161v560.250429c0 46.145421 36.220382 82.396972 82.290107 82.396972h493.758455c46.071952 0 82.290107-36.251551 82.290107-82.396972V227.494455c-0.002226-46.12761-36.218156-82.381387-82.292333-82.381388zM339.476192 784.728188c-23.049334 0-41.145054-18.102399-41.145054-41.180675 0-23.082729 18.09572-41.200712 41.145054-41.200712 23.027071 0 41.145054 18.117983 41.145053 41.200712 0 23.080503-18.117983 41.180675-41.145053 41.180675z m345.626465 0c-23.047108 0-41.145054-18.102399-41.145053-41.180675 0-23.082729 18.100172-41.200712 41.145053-41.200712s41.142827 18.117983 41.142828 41.200712c0 23.080503-18.100172 41.180675-41.142828 41.180675z m60.43632-213.728973c0 23.505734-17.837464 41.463421-41.16509 41.463421H320.182699c-23.325401 0-41.162864-17.957686-41.162864-41.463421V294.578636c0-23.487924 17.837464-41.463421 41.162864-41.463421h384.191188c23.329853 0 41.165091 17.975497 41.16509 41.463421v276.420579z" fill="#EB5757" p-id="42113"></path></svg>