<?xml version="1.0" standalone="no"?><!DOCTYPE svg PUBLIC "-//W3C//DTD SVG 1.1//EN" "http://www.w3.org/Graphics/SVG/1.1/DTD/svg11.dtd"><svg t="1734254379979" class="icon" viewBox="0 0 1024 1024" version="1.1" xmlns="http://www.w3.org/2000/svg" p-id="50711" xmlns:xlink="http://www.w3.org/1999/xlink" width="200" height="200"><path d="M330.24 377.9072H136.5504a28.16 28.16 0 0 0-27.648 23.04l-43.52 236.8 441.9584 55.04C433.5104 599.04 354.9184 480.9728 330.24 377.9072z m536.5248 359.68l105.0624 13.056-12.4416-67.6864-9.5744-52.1216a1840.7424 1840.7424 0 0 1-83.0464 106.752z m-50.3808 58.1632c-13.4144 15.0528-27.0848 29.9008-40.96 44.544l-23.4496 24.5248-46.7968 49.0496-46.848-49.0496-23.3984-24.576a2111.2832 2111.2832 0 0 1-68.4032-75.5712l-248.6272-30.976L399.5648 1024h588.7488a28.416 28.416 0 0 0 21.6576-10.24 27.9552 27.9552 0 0 0 5.9904-23.04l-31.9488-174.08-167.6288-20.8384zM249.7024 725.248l-195.9424-24.3712L0.512 990.72c-1.536 8.192 0.6144 16.64 5.9904 23.04a28.4672 28.4672 0 0 0 21.6064 10.24h304.5376l-82.5344-293.2224a29.696 29.696 0 0 1-0.4096-5.632z m455.4752-286.7712a128.512 128.512 0 0 0 128.9728-128 128.512 128.512 0 0 0-128.9728-128 128.512 128.512 0 0 0-128.9216 128 128.6144 128.6144 0 0 0 128.9216 128z m0-192c35.6352 0 64.512 28.672 64.512 64s-28.8768 64-64.512 64c-35.584 0-64.512-28.672-64.512-64 0.1024-35.328 28.928-64 64.512-64z" fill="#d4237a" p-id="50712"></path><path d="M705.1776 820.7872l23.3984-24.576c30.208-31.6928 295.424-314.624 295.424-479.744C1024 141.6704 881.2544 0 705.1776 0c-176.0768 0-318.8224 141.6704-318.8224 316.4672 0 165.12 265.216 448 295.424 479.744l23.3984 24.576z m0-756.7872c140.3904 0.1536 254.1568 113.152 254.3616 252.4672 0 107.776-166.2976 313.4464-254.3616 410.5216-88.064-97.0752-254.3104-302.7456-254.3104-410.5216 0.1536-139.3664 113.92-252.3136 254.3104-252.4672z" fill="#d4237a" p-id="50713"></path></svg>