<?xml version="1.0" standalone="no"?><!DOCTYPE svg PUBLIC "-//W3C//DTD SVG 1.1//EN" "http://www.w3.org/Graphics/SVG/1.1/DTD/svg11.dtd"><svg t="1728042720163" class="icon" viewBox="0 0 1024 1024" version="1.1" xmlns="http://www.w3.org/2000/svg" p-id="27013" xmlns:xlink="http://www.w3.org/1999/xlink" width="200" height="200"><path d="M950.4 910.293333h-7.466667v-277.333333a82.133333 82.133333 0 0 0-82.133333-82.133333H853.333333v-51.2a37.333333 37.333333 0 0 0-74.666666 0v52.266666h-59.733334v-52.266666a37.333333 37.333333 0 0 0-36.266666-37.333334h-13.013334c33.92-50.133333 68.266667-119.893333 48.426667-176.64a258.986667 258.986667 0 0 0-73.6-100.906666c-7.893333-7.893333-16.213333-15.786667-24.106667-24.32-26.88-27.52-62.506667-62.293333-80.64-79.786667V51.626667a37.333333 37.333333 0 1 0-74.666666 0v29.013333c-17.92 17.493333-53.546667 52.266667-79.36 79.786667-7.893333 8.533333-16.213333 16.426667-24.106667 24.32a258.986667 258.986667 0 0 0-73.6 100.906666c-19.84 56.746667 14.506667 126.506667 48.426667 176.64h-13.226667a37.546667 37.546667 0 0 0-37.333333 37.333334v52.266666h-38.4v-52.266666a37.333333 37.333333 0 0 0-74.666667 0v52.266666H144a82.346667 82.346667 0 0 0-82.133333 82.133334v277.333333h-7.466667a37.333333 37.333333 0 1 0 0 74.666667h896a37.333333 37.333333 0 0 0 0-74.666667z m-89.6-283.733333a7.466667 7.466667 0 0 1 7.466667 7.466667v277.333333h-149.333334V626.56zM358.613333 310.4a192 192 0 0 1 55.04-72.106667c8.746667-8.533333 17.706667-17.28 26.453334-26.666666 16.64-17.493333 37.76-38.826667 55.253333-56.106667h7.04a36.053333 36.053333 0 0 0 7.04 0c17.706667 17.28 38.826667 38.4 55.466667 56.106667 8.746667 9.386667 17.706667 18.133333 26.453333 26.666666a192 192 0 0 1 55.04 72.106667c11.733333 33.28-32.64 105.6-71.253333 151.893333h-145.28c-38.826667-46.293333-82.986667-118.613333-71.253334-151.893333zM136.533333 634.026667a7.466667 7.466667 0 0 1 7.466667-7.466667h141.866667v283.733333h-149.333334z m455.466667 277.333333H539.733333v-187.733333a37.333333 37.333333 0 0 0-74.666666 0v186.666666h-104.533334v-373.333333h283.733334v373.333333z" fill="#ffffff" p-id="27014"></path></svg>