<?xml version="1.0" standalone="no"?><!DOCTYPE svg PUBLIC "-//W3C//DTD SVG 1.1//EN" "http://www.w3.org/Graphics/SVG/1.1/DTD/svg11.dtd"><svg t="1728394980692" class="icon" viewBox="0 0 1024 1024" version="1.1" xmlns="http://www.w3.org/2000/svg" p-id="12322" xmlns:xlink="http://www.w3.org/1999/xlink" width="200" height="200"><path d="M892.6 892.6c-26.8 76.3-99.7 131.4-184.8 131.4H316.2c-85.2 0-158.1-55.1-184.8-131.4C55.1 865.8 0 792.9 0 707.8V316.2C0 231 55.1 158.1 131.4 131.4 158.2 55.1 231.1 0 316.2 0h391.5c85.2 0 158 55.1 184.8 131.4 76.3 26.8 131.4 99.7 131.4 184.8v391.5c0.1 85.2-55 158.1-131.3 184.9z m87.9-576.4c0-64.7-41.5-122.5-102.3-143.8l-19.7-6.9-6.9-19.7C830.3 85 772.5 43.5 707.8 43.5H316.2c-64.7 0-122.5 41.5-143.8 102.3l-6.9 19.7-19.7 6.9C85 193.7 43.5 251.5 43.5 316.2v391.5c0 64.7 41.5 122.5 102.3 143.8l19.7 6.9 6.9 19.7c21.3 60.8 79.1 102.3 143.8 102.3h391.5c64.7 0 122.5-41.5 143.8-102.3l6.9-19.7 19.7-6.9c60.8-21.3 102.3-79.1 102.3-143.8V316.2zM859 431.5c-0.3 0.5-20.5 41-62.5 85.7-17.9 18.8-29.4 37-50.3 70.2-6.3 10.2-13.7 21.8-22.3 35.2-41.3 64.1-162.8 116.8-227.2 100.4 22.9-13.1 39.6-33.4 40.4-34.3l4.1-5-6.5 0.2c-0.2 0-15.1 0.3-39.9-0.9-8.7-0.5-14.9-2.4-17.2-5.7-0.9-1.1-1.1-2.1-1.1-3 5.9-1.8 25-8.3 32.7-19l-4.8-3.5c-7.1 9.8-27 16-30.6 17-5.9-1.4-9.8-3.5-11.1-6.3-0.9-1.8-0.6-3.6-0.2-4.8 6-1.4 27.1-6.5 36.6-16l-4.2-4.2c-9 9-31.8 14-34.3 14.6-8.7-2.7-9.5-9.3-9.3-12.6 6.2-1.4 24.7-6 37-14.3 3.3 5 8.3 8 12.8 9.5 0.3 5.4 3.5 12.2 14.3 18.5l3-5.3c-7.1-4.1-14.6-10.7-10.2-19.6 4.8-9.8 20.8-16.6 27.4-13.7l2.4-5.4c-10.2-4.4-29.2 4.5-35.1 16.4-0.5 0.8-0.8 1.8-1.2 2.9-4.4-1.7-10.7-5.6-10.4-14.8 0.6-15.2 26.7-19.7 27-19.9l-1.1-5.7c-1.1 0.2-24.5 4.2-30.4 19.1-4.8-5.9-6.6-11-5.1-15.2 3-9.2 20.3-13.7 26.8-14.6l-0.9-5.9c-0.9 0.2-21.2 3.3-29.2 14.2-5.1-5.6-3.6-8.7-3-9.8 3.9-7.4 21.5-11.3 26.8-9.9l1.4-5.9c-6.6-1.5-26.7 2.4-33 12.3-0.9-3.8-0.6-7.2 1.2-10.5 4.5-7.7 16.7-12.8 27.4-11.3l0.9-5.9c-13.1-1.8-27.7 4.5-33.4 14.3-0.6 1.1-0.9 2.3-1.4 3.5-2.1-5.3-2.3-9.8-0.2-13.4 5.9-10.5 28.3-13.6 36.4-13.9l-0.2-5.9c-1.4 0-32.8 1.2-41.6 16.9-0.2 0.5-0.3 0.8-0.5 1.2-11.1 1.7-18.5 1.7-19.1 1.7-0.8-0.2-2.7-1.2-3.5-3-0.8-2.1 0.8-5 2.1-6.9 6.8-10.1 16.7-11 17.2-11l9.8-0.9-8.6-4.7c-17.5-9.8-22.7-19.1-24.4-24.1 10.4 2.1 16.1 1.1 19 0.2 3 2.1 11.3 7.1 28.2 13.1l2-5.6c-20-7.1-27.4-12.8-27.9-13.1-12.2-10.5-16.3-20.2-17.6-25.6 8.4 3.5 17.2 6.5 19.6 7.2 2.3 2.1 13.7 12.3 34.6 22.6l2.6-5.4c-21.1-10.2-32.4-20.8-33.4-21.7-12.2-16.1-13.7-32.5-13.6-40.7 22.7 19.4 127.7 112 160.2 195.9l5.6-2.3c-18.8-48.5-61.4-99.8-98.8-138.5 9.6 3.5 23.2 9.6 29.1 18.8l5-3.2c-10.4-16.3-39.2-23.6-42.8-24.5-3.8-3.8-7.5-7.4-11.1-11 13 0.3 41.7 3.2 62.8 23.8l4.1-4.2c-27.4-26.7-65.5-25.8-72.7-25.3-23.9-22.9-41.4-37.5-42-37.8l-3.8-3.2-0.9 4.8c-0.2 0.5-0.8 3.9-0.6 9.3-72.4-41.4-161.1-116.6-163.5-118.7-1.5-1.8-41.3-47.9-37.5-104.2 12 18.4 46.8 67.6 103.9 115 53 43.8 125 109.3 144.1 128.9 2.9 3 6.9 0.9 11.9-1.7 0.2-0.2 0.5-0.3 0.6-0.5 6.2 0.2 50.7 1.5 69.3 28.3l5-3.3c-15.4-22.1-45.5-28.3-62.5-30.1 13.7-4.5 34-5.3 63.4 16.7l3.6-4.7c-0.3-0.2-27.4-22.1-32.8-67-1.5-12.3 2.3-39.2 5.1-41.9 2-0.5 8.4 5.1 13.7 11.3 2.1 4.4 35.8 75.9 31.9 103.8l6 0.9c4.1-29.8-29.7-101.3-32.5-107.2-0.9-5.6-1.8-19.1 1.7-26.8 2.1 3.3 5 8 6.9 11.1 0.9 1.5 29.4 53 35.1 118.2l5.9-0.6c-5.4-62.5-31.5-112.6-35.2-119.7 1.4-10.7 6.6-35.2 16-42.8l4.4 13.1c0.6 2.1 27.9 99.1 22.4 140.3l5.9 0.8c5.6-41.6-19.9-133.4-22.4-142.2 0.9-3.5 6.9-26.4 20.5-40.8l3.3 20.9c0.5 3.6 15.8 108 5.9 159.9l5.7 1.2c10.2-52.9-4.7-154.4-5.7-161.9 0.5-2.4 5.3-26.1 19.4-37.3-0.6 3.9-1.2 9.2-1.2 15.5 0 4.8 0.3 10.2 1.4 16.1 0 0.9 6.2 91.3-3 165.6l5.9 0.8c8.9-72.1 3.6-158.6 3-165.9 1.5-3.5 15.8-34.6 34-41.3l-3.2 22.9c-10.8 44.9-13 84.6-14.6 116.7-1.4 25.4-2.4 45.6-7.5 58.1l5.6 2.1c5.4-13.4 6.5-33.9 7.8-59.9 1.7-31.8 3.8-71.2 14.5-115.4 1.1-2 15.8-28.9 39.9-31.5l-5.3 17.2c-14.9 41.3-22.3 83.7-28.3 117.8-4.8 27.9-8.9 51.8-15.7 67.2l5.4 2.4c7.1-16 11.3-40.4 16.1-68.5 5.9-33.7 13.3-75.6 27.9-116.4 2-2.1 20.3-22.3 46.5-27.6-6 10.1-18.8 31.5-24.2 44.1-0.6 0.9-23.3 43.1-61.7 163.8l5.6 1.8c37.3-117.3 59.8-159.9 61.1-162.5 0.9-1.2 23-27.6 54.5-26.8-12.2 13.1-46.8 57.7-98.5 181.8l-0.2 0.8c0 0.5-7.1 53-39.8 83.4-48.8 45.5-71.7 73.2-68.1 82.4 1.8 4.4 16 6.9 28.3 6.3 27.6-0.9 95.8-16.1 134.2-135.8 6.5-20.5 14.8-45.8 70-56l0.9-0.2 0.6-0.6c0.5-0.5 47.7-41.3 96.1-61.9-26.2 20.8-76.6 61.7-88.8 83.9z m-206.6 73.6c0-0.2 8-4.7 14.3-2.1 3.5 1.4 5.9 4.7 7.4 9.8l5.7-1.7c-1.7-5.9-4.7-9.9-8.6-12.3 1.4-1.8 3.9-4.7 7.8-5.3 3.9-0.6 8.1 1.2 12.8 5.3l3.9-4.4c-6-5.4-11.9-7.7-17.8-6.8-7.4 1.2-11.4 7.2-12.5 8.9-8.1-1.4-15.8 3.2-16.1 3.5l3.1 5.1z m-26.7-20.6c4.5 0.6 8.7 4.1 12.3 10.4l5.1-3c-4.5-8.1-10.2-12.5-16.9-13.3-7.4-0.8-13.9 3.5-17.3 6.5-2.9-2-5.9-3.2-8.9-3.5h-1.7c-6.5 0-11.6 3.3-14.5 5.7-3.2-3.5-6.6-5.6-10.4-5.9-9.5-0.6-16.4 9.5-16.7 9.9l5 3.3c0-0.2 5-7.7 11.3-7.2 3.2 0.2 6.5 2.9 9.3 7.5-7.1 0.6-12.3 4.1-14.9 6.2 0 0-0.2-0.2-0.3-0.2-11.9 0-19.4 9-19.9 9.3l4.7 3.9c0-0.2 6.2-7.2 15.2-7.2 6.9 0 13.9 4.2 20.5 12.3l4.7-3.8c-5.4-6.5-11-10.7-16.7-12.8 5.3-2.6 13.9-4.1 24.1 4.5l3.9-4.5c-5.1-4.2-9.8-6.3-14.2-7.2-0.6-1.2-1.4-2.6-2-3.6 2.3-1.8 6.6-5 11.9-4.4 4.8 0.3 9.3 3.8 13.6 9.9-5.3 3.5-8 8.1-8.1 8.4l5.1 2.9s4.2-7.4 11.9-8.7c5.7-0.9 12 1.7 18.8 7.8l3.9-4.5c-8.1-7.2-16.1-10.2-23.8-9-0.9 0.2-1.5 0.5-2.3 0.8-1.5-2.4-3.2-4.5-5-6.2 3.1-2.1 7.5-4.9 12.3-4.3z m10.6 43.4l4.7-3.6c-6.5-8.1-13.9-12.6-21.8-13.6-11.3-1.2-19.4 5.4-19.7 5.7l3.8 4.5c0.4-0.4 16.9-13.1 33 7z m-18.1 10c-5.1-8.3-11.1-13-18.1-13.7-10.4-1.2-18.5 6.8-19 7.2l4.2 4.1c0.2 0 6.6-6.3 14-5.4 5.1 0.6 9.6 4.2 13.7 10.8l5.2-3zM842.7 424c-0.3-0.2-7.2-1.2-13.1 3.5-4.4 3.6-6.9 9.3-7.5 17l-0.2 3.2h3.3c6.2 0 18.1-4.2 20-20.5l0.3-2.7-2.8-0.5z m-14.1 17.1c0.8-4.1 2.4-7.1 4.7-9 1.8-1.4 3.9-2 5.6-2.3-2.1 7.7-7 10.4-10.3 11.3zM424.3 218.7c-34-23.1-72.1-30.8-110.9-4.8 18.2-49 80.2-40.3 102.2-27 21.1-23.9 50.2-54.3 85.9-45.2 4.8 1.2 10.7 4 14 8-36.1 5-66.7 33.8-91.2 69z m16.5 220.8c1 7.6 3.4 17 9.3 26.9-4.8-1.7-10.8-4.1-15.9-6.5l-0.1-0.1c-0.1 0-0.2-0.1-0.3-0.1l-3.5-1.7v0.1c-62.7-27.2-163.3-101.4-166-103.3-0.8-0.8-38.6-35.6-42.3-77.8 9.3 9.5 29.3 28.5 50.9 41.1 2.9 2.5 94.5 80.3 167.9 121.4zM430 464.6c0.3 3.8 1.9 12.3 10.2 22.7-119.1-49.1-188.1-97.7-188.8-98.2l-1.3 1.8 0.9-2c-2.4-1.3-5-2.7-7.6-4.2-12.9-8.1-38.7-29.1-44.5-69.5 13.4 10.5 47.1 36.6 61.8 44.5 2.5 1.7 106.1 78.1 169.3 104.9zM248.2 394c3.1 2.2 72.9 50.8 191.8 99.5-2.8-0.3-6.1-0.8-10.1-1.8l-3.4-0.9-0.3 3.5c0 0.2 0 1.7 0.5 3.9-89.2-18.6-186.1-71.6-187.1-72.2-0.7-0.4-2.2-1.4-4.5-2.7-11.2-7.3-40.5-29.3-49.3-66.6 11 6.9 35.4 22.1 55.1 33.2 4 2.6 6.6 3.8 7.3 4.1zM174 767.1c13.8 0.7 40.8 1.6 53.1-1.2l10.6-2.5-10.4-3.3c-0.1 0-10.1-3.2-16.3-10 13.2 3.2 41.2 8.1 63.9-1.1 21.5-8.8 62.9-30.5 63.4-30.7l9.6-5.1c10.6-5.4 28.1-13.7 43.6-18.2-0.4 1.7-0.6 2.9-0.6 3.7-7.6 8.8-14.3 19.4-18.8 32.1l-1.7 4.8 5-0.9c0.6-0.1 7.4-1.4 16.3-3.3-19.4 9.7-36 19.2-38.2 20.4-2.7 0.7-24.2 6.1-36.7 11.9 2.1-8 6.4-21.9 13.4-30.9l13.3-17.2-17.5 13c-1.3 1-129 95.1-185.4 57.1 14.2 1.1 40.7 2 58.7-3.9L214 777l-15.4-0.9c-0.1 0-13.4-0.9-24.6-9z m134.3 8.4c-6.1 3.2-11.4 6-15.1 8-14.2 7.6-49.2 1.9-49.6 1.8l-3.2-0.5c32.4-13.6 62.2-32.6 77.9-43.3-6 13-8.7 26.9-8.8 27.6l-1.2 6.4z m4.1-2.1l1.8-1.4c2.2-1.6 6-3.4 10.5-5.1-4.1 2.2-8.3 4.4-12.3 6.5z m-64.7 51.7l-8.3-2.4c-4.8-1.4-15.6-5-23.7-9.2 18 0.4 51.3 0.2 58.2-6.4l3.4-3.3-4.4-1.7c-3.9-1.5-12.7-5.3-19.7-9.6 12.2 1.2 32 2 42.8-3.8 12.5-6.7 45.1-23.7 56.2-29.4l-11.5 10c-0.9 0.8-94.7 82.2-145.6 78.1-7-0.6-12.6-2.7-17.2-6.4 13.5-1.7 46-6.3 61.7-12.7l8.1-3.2z m54.7 48.1h66.5c14 0 14.3 20.7 1 21.6H346c-5.2 0-5.2 7.9 0 7.9h115.1c6.4 0 6.3 6.9-0.2 6.9H331.1c-14.3 0-14.3-21.7 0-21.7h37.8c5.2 0 5.2-7.9 0-7.9h-66.3c-3.7-0.6-3-6.8-0.2-6.8z m33.6 21.7h-4.9c-5.2 0-5.2 7.9 0 7.9h4.9c-0.9-2.5-0.9-5.4 0-7.9z m136.5-214.4c3.4 5 10.8 7.9 22 8.4 15.3 0.7 26.9 0.9 33.6 0.9-1.2 1.3-3 3.1-4.7 4.7-44.4 13.8-87.4 40.7-103.9 51.7 11.7-33.6 40.7-59.6 51.7-68.5 0.3 1 0.7 1.9 1.3 2.8z m-5-7.4c-8.1 6.5-25.1 21.7-38.9 42.4l-0.2-0.4h-0.1c-13.9 5.6-38.2 10.8-48.8 12.9 19.9-47.9 72-61.6 77.7-63 1.8 3.6 5.2 6.3 10.3 8.1z m-11.2-13.9c-2.9 0.7-32.3 8-56.8 30.7 4.8-11 18.6-27.5 56.9-31.3-0.1 0.1-0.1 0.3-0.1 0.6z m-62.9-3.5c4.5-11.8 36-15.1 51.9-15.6 0 4.1 1.1 9.2 5.2 13.1-24.9 3.3-39.5 12.2-47.9 21.4-5.8-5.7-11.4-13.1-9.2-18.9z m92-41c0 1.7 0.2 3.3 0.6 4.8-12.3 8.8-33.4 13.6-36.8 14.3-3.4-1.9-5.6-4.2-6.2-6.9-0.9-3.6 0.8-7.1 1.8-8.8 5-0.6 21.7-3.2 35.2-10.1 1.4 2.2 3.2 4.5 5.4 6.7zM470 584.4l0.1-0.1c0.2 0.3 0.2 0.6 0.4 0.9-12.8 4-27.1 5.5-31.3 5.8-1.5-1.4-2.4-2.9-2.5-4.7-0.3-3.5 1.8-6.9 3-8.5 3.4-0.3 13-1.5 24.7-6 0.6 4.2 2.4 8.4 5.6 12.6z m-29.2-29.3c2.2 0 8.3-0.3 17-1.5-0.3 4 0.7 8.4 3 13.2-10.5 3.8-19 4.9-21.7 5.2-2.6-2-4.2-4.1-4.2-6.4-0.3-4.3 3.7-8.6 5.9-10.5zM267 512l-2-0.4c-0.5-0.1-11.8-2.7-11.1-17.2 17.6 6.7 96.9 35.5 178.1 45.4-1.2 2.9-1.7 5.7-0.8 8.2 0 0.1 0.1 0.1 0.1 0.2-80.9-8.4-153.1-32.2-164.2-35.9l-0.1-0.3z m2 7.2c19.3 6.3 88.1 27.6 164.3 35.2-1.5 1.9-2.9 4.1-3.7 6.7-86.3 5.9-139.8-18.3-140.5-18.7-0.7-0.3-14.6-8.2-20.1-23.2z m124.7 169.2c-24 6.1-54.2 22.5-57.7 24.4-4 0.3-35.8 2.7-53.8 7.8 7.5-10.8 23.7-30.9 47-43.4 0.3-0.2 29.4-15.2 58.1-20.5-0.9 6.6 2.9 14.1 11.5 22.4-2.2 3.3-3.9 6.4-5.1 9.3z m-8.4-52.4c-0.9 5.8 0.8 11.2 2.5 14.6-29 5-57.5 19.4-60.8 21.1-3.5 0.2-27.4 1.8-42 5.3 7.2-13.7 32-47.9 99.1-41.1l1.2 0.1z m-15.8-55.5c-6.2 0.4-46.2 1.3-72.8-28.7 16.7 5.8 53.2 16.1 104.4 16.2-17.3 2.4-28.6 10.2-31.6 12.5z m60.4-11c-4.4-1-8.7-1.7-12.7-2 4-0.1 7.9-0.2 12-0.5 0.1 0.9 0.4 1.7 0.7 2.5z m0.8 17.3c0.1 1.2 0.5 2.2 0.9 3.3-27.3-3.9-47.5 6.5-53.4 10.1-3-2.1-8.9-7.5-5.1-15 2.6-2 25.9-18.6 60.2-8.4-1.5 2.6-2.9 6.1-2.6 10zM387.2 630c-0.2 0.4-0.2 0.7-0.4 1.1l-0.3-0.3c-0.1-0.1-13.4-13.1-6-25 2.8-1.8 24.2-14.9 53.6-9.3-1.4 4.7-1.6 10.9 1.8 16-26.6 0.8-43 6.6-48.7 17.5z m53.1 4.3c-12.9 0.7-36.6 3.3-47.5 12.7-1.1-2.8-2.2-6.6-1.5-10.4l1.5 0.2-1.3-1.2c0.2-0.9 0.5-1.9 1-2.8 3.3-6.3 14.1-13.6 45.6-14.2-1 2.7-1.7 6.2-0.9 9.9 0.5 2 1.6 4 3.1 5.8zM202.1 420.7c0.3-0.9 0.9-1.4 1.9-1.7 5.4-1.7 18 3.8 27.3 9.1 3.1 2 5.1 3.1 5.5 3.3 1.5 0.8 101.5 55.5 192.5 73.6 2.2 4.1 6 9.1 12.6 14.4-93.4-14.3-197.3-60.7-199.2-61.5-15.1-7.7-44.7-26.7-40.6-37.2z m233 113.6c-91.6-10.7-181.8-46.4-182.8-46.8-12.7-5.6-30.7-16.4-30.8-22.7 0-2.4 0.8-3.2 1.4-3.7 3.2-2.2 12-0.1 17.2 2.1 1.4 0.6 109.2 48.8 204.6 62.6-3.1 1.8-6.5 4.6-9.6 8.5z m8.7 78c-6.6-4.2-4.8-12.1-3.7-15.4 5.2-0.5 20.7-2.1 34.3-6.7 0.3 0.3 0.4 0.6 0.8 0.9l0.7-0.7c-1.2 3.9-0.8 8 1.1 12.5-13 6.5-29.7 9-33.2 9.4z m-38.1 177.2c0.8-7.9 2.2-17.8 3.3-21.1l1.7-5.6-5.5 1.9c-5.9 2-52.6 18.1-69.2 32.6 0.1-5.6 1.8-14.3 9.1-24l12.9-17.1 20.1-10.4-2.3 0.6c13.6-7.3 32-16.6 48-23.2-5.2 9.1-9.7 18.9-12.3 29.5l-2 7.9 6.6-4.8c0.5-0.4 46-32.9 96.6-51.4-6.9 5.8-15.1 11.7-24.2 16.2l-0.8-0.3-1.3 1.9c-0.1 0.2-13.3 18.5-45.3 38.4-16.4 10.2-28.3 19.9-35.4 28.9z m443-7.8c16-12.8 37.8-28.7 59.3-18.9 2.9 1.3 6.3 3.7 8 6.6-23.4-0.9-45.9 13.8-65.3 33.3-18.9-18.4-42.1-27.5-69.5-15.4 16.9-28.8 55-16.4 67.5-5.6z" fill="#ffffff" p-id="12323"></path></svg>