<?xml version="1.0" standalone="no"?><!DOCTYPE svg PUBLIC "-//W3C//DTD SVG 1.1//EN" "http://www.w3.org/Graphics/SVG/1.1/DTD/svg11.dtd"><svg t="1728042671830" class="icon" viewBox="0 0 1024 1024" version="1.1" xmlns="http://www.w3.org/2000/svg" p-id="24599" xmlns:xlink="http://www.w3.org/1999/xlink" width="200" height="200"><path d="M435.818453 768.171405h-52.302735c-12.848281-0.909613-23.877336 11.199607-25.014352 27.288384v98.92039c1.137016 16.088776 12.166071 28.197996 25.014352 27.288383h52.302735c12.848281 0.909613 23.877336-11.199607 25.014351-27.288383v-98.92039c-1.137016-16.088776-12.166071-28.197996-25.014351-27.288384z m153.497156 0h-52.302734c-12.848281-0.909613-23.877336 11.199607-25.014352 27.288384v98.92039c1.137016 16.088776 12.166071 28.197996 25.014352 27.288383h52.302734c12.848281 0.852762 23.877336-11.199607 25.014352-27.288383v-98.92039c-1.137016-16.088776-12.166071-28.141145-25.014352-27.288384z m358.273735 255.260087H64.014228a55.827484 55.827484 0 1 1 0-110.574804h31.893298v-155.202681c-61.342012-29.90352-98.18133-68.050406-14.724357-104.207514 18.988167-8.243366 38.658543-14.667506 58.897428-19.101868V534.457771c-56.395992-25.582859-88.346141-61.683117-12.279773-93.576415 34.224181-12.450325 69.585378-21.717005 105.571934-27.629488V326.099593c-41.785337-19.101868-66.288031-46.95876-9.835188-70.210736 22.171812-8.641321 45.253236-15.008611 68.732615-19.101869a461.571636 461.571636 0 0 0 186.470621-89.312605V30.53229a34.678987 34.678987 0 0 1 68.789466 0v116.942093a432.861982 432.861982 0 0 0 186.470621 89.312605c23.536231 4.093258 46.560804 10.460547 68.789466 19.101869 56.395992 23.422529 31.893298 51.279421-9.835188 70.210736v87.152275c36.157108 4.94602 71.632007 14.2127 105.571933 27.629488 73.621785 31.893298 41.671636 68.050406-14.781207 93.576415v99.943704c20.238884 4.434362 39.966112 10.801652 58.954278 19.101869 83.456973 36.157108 46.617655 76.578026-14.781208 104.150663v155.259532h31.950149c32.575508-1.591822 60.716653 22.74032 63.786597 55.258977-12.279773 31.836447-42.069591 53.496602-76.12322 55.315827h0.056851z" fill="#ffffff" p-id="24600"></path></svg>