<?xml version="1.0" standalone="no"?><!DOCTYPE svg PUBLIC "-//W3C//DTD SVG 1.1//EN" "http://www.w3.org/Graphics/SVG/1.1/DTD/svg11.dtd"><svg t="1728042823269" class="icon" viewBox="0 0 1024 1024" version="1.1" xmlns="http://www.w3.org/2000/svg" p-id="31019" xmlns:xlink="http://www.w3.org/1999/xlink" width="200" height="200"><path d="M532.672 71.168a32.96 32.96 0 0 0-41.088 0.128l-60.096 54.592-158.528 64.448c-10.176 4.096-16.448 12.096-16.448 20.736 0 13.056 14.016 23.616 31.232 23.616h448.512c11.52 0 22.016-4.8 27.52-12.352 8.128-11.52 2.496-25.856-12.736-32l-156.288-63.488-62.144-55.68zM341.632 277.312A42.624 42.624 0 0 0 299.072 320v85.376c0 23.552 19.072 42.624 42.56 42.624h340.672a42.624 42.624 0 0 0 42.56-42.624V320a42.624 42.624 0 0 0-42.56-42.688H341.76zM682.304 960h183.04a85.12 85.12 0 0 0 81.408-110.272l-52.032-170.624a85.248 85.248 0 0 0-81.472-60.416H210.752a85.184 85.184 0 0 0-81.472 60.416l-52.032 170.624A85.504 85.504 0 0 0 158.656 960h183.04c0-142.208 56.768-213.312 170.304-213.312s170.304 71.04 170.304 213.312zM235.2 490.688A21.312 21.312 0 0 0 213.952 512v42.688a21.312 21.312 0 1 0 42.56 0V512a21.312 21.312 0 0 0-21.312-21.312z m92.288 0A21.312 21.312 0 0 0 306.176 512v42.688a21.312 21.312 0 1 0 42.624 0V512a21.312 21.312 0 0 0-21.312-21.312z m92.224 0A21.312 21.312 0 0 0 398.464 512v42.688a21.312 21.312 0 1 0 42.56 0V512a21.312 21.312 0 0 0-21.312-21.312z m92.288 0A21.312 21.312 0 0 0 490.688 512v42.688a21.312 21.312 0 1 0 42.624 0V512A21.312 21.312 0 0 0 512 490.688z m92.288 0A21.312 21.312 0 0 0 582.976 512v42.688a21.312 21.312 0 1 0 42.624 0V512a21.312 21.312 0 0 0-21.312-21.312z m92.16 0A21.312 21.312 0 0 0 675.2 512v42.688a21.312 21.312 0 1 0 42.56 0V512a21.312 21.312 0 0 0-21.248-21.312z m92.352 0a21.312 21.312 0 0 0-21.312 21.312v42.688a21.312 21.312 0 1 0 42.56 0V512a21.312 21.312 0 0 0-21.248-21.312z" p-id="31020" fill="#ffffff"></path></svg>