<?xml version="1.0" standalone="no"?><!DOCTYPE svg PUBLIC "-//W3C//DTD SVG 1.1//EN" "http://www.w3.org/Graphics/SVG/1.1/DTD/svg11.dtd"><svg t="1728393682201" class="icon" viewBox="0 0 1024 1024" version="1.1" xmlns="http://www.w3.org/2000/svg" p-id="19810" xmlns:xlink="http://www.w3.org/1999/xlink" width="200" height="200"><path d="M511.354102 324.389127C318.065904 491.787904 272.667883 784.178316 413.469631 1021.066716c13.242975-117.878524 48.960748-212.537617 90.183057-284.672543 70.641543 32.07688 157.574538 36.96843 244.034423 6.932095-101.377259-53.691852-148.708862-183.969981-101.002885-309.936635" fill="#FF9999" p-id="19811"></path><path d="M628.171213 542.205009c-1.168377-35.318715 4.677621-72.254233 18.517127-108.815376A13578.628526 13578.628526 0 0 0 511.354102 324.389127c-56.542856 48.964862-100.439266 108.650816-130.714214 174.511888 28.38662 27.785975 69.530763 42.032767 114.188264 46.998369 47.278121 5.253582 94.346428 1.065527 133.343061-3.694375z" fill="#E68A8A" p-id="19812"></path><path d="M432.698481 450.359895a32.340177 32.340177 0 0 1-31.472122-39.778294l22.91911-97.057556-80.568633-72.373538a32.344291 32.344291 0 0 1 21.614971-56.398866h92.906527l44.587563-102.697854a32.340177 32.340177 0 0 1 29.312271-19.459233c12.885057-0.218042 24.404265 7.228303 29.731899 18.809221l47.594899 103.347866h93.429005a32.323721 32.323721 0 0 1 30.583498 21.828899 32.319607 32.319607 0 0 1-10.700522 36.018096l-78.083774 60.870786 26.802728 103.203876a32.340177 32.340177 0 0 1-48.179087 35.717773L533.462753 387.485589l-82.33354 57.10236a32.274353 32.274353 0 0 1-18.430732 5.771946z m99.657605-133.799716a32.377203 32.377203 0 0 1 16.883868 4.751674l39.375122 24.099829-12.012889-46.253735a32.348405 32.348405 0 0 1 11.412244-33.636087l20.652295-16.09398h-20.05165a32.348405 32.348405 0 0 1-29.378095-18.809221l-26.016954-56.485259-24.243819 55.835247a32.336063 32.336063 0 0 1-29.666075 19.459233h-29.731899l32.056311 28.798021a32.344291 32.344291 0 0 1 9.861265 31.492692l-7.956482 33.673113 30.377797-21.067809a32.393659 32.393659 0 0 1 18.438961-5.763718z" p-id="19813"></path><path d="M794.574402 257.952094c0 140.838774-114.175922 255.010582-255.022925 255.010583-140.818204 0-255.014696-114.175922-255.014696-255.010583C284.536781 117.096864 398.725045 2.933284 539.551477 2.933284c140.847002-0.004114 255.022924 114.159466 255.022925 255.01881z" fill="#FFD28F" p-id="19814"></path><path d="M326.04707 271.232096c0-124.477385 100.908263-225.373306 225.365078-225.373306 54.514652 0 116.389255 19.35227 155.373546 51.57314C665.452307 47.385085 591.034109 15.505677 521.071376 15.505677c-124.448587 0-225.365078 100.887693-225.365077 225.369191 0 69.950391 31.879408 140.390348 81.901569 181.715507C345.403454 383.626654 326.04707 325.722064 326.04707 271.232096z" fill="#FFFFFF" opacity=".44" p-id="19815"></path><path d="M589.228062 7.804263c97.909154 27.666669 169.677935 117.615228 169.677935 224.390059 0 128.797088-104.425735 233.214595-233.231051 233.214595-128.792974 0-233.222823-104.421621-233.222824-233.214595 0-24.202679 3.686147-47.545531 10.535962-69.49785A254.21658 254.21658 0 0 0 284.528553 257.94798c0 140.830546 114.188264 255.014696 255.01881 255.014697 140.859344 0 255.027038-114.171808 255.027039-255.014697 0-123.847943-88.282388-227.023021-205.34634-250.143717z" fill="#E8B76D" opacity=".76" p-id="19816"></path><path d="M467.774469 285.618764c0-45.089472 37.6061-81.646501 83.999711-81.646501 18.006991 0 34.668702 5.533334 48.347762 14.909146-14.201538-25.53973-41.991627-42.896708-73.95743-42.896708-46.39361 0-83.999711 36.565258-83.999711 81.650615 0 27.592617 14.094574 51.955742 35.651949 66.753811a79.601842 79.601842 0 0 1-10.042281-38.770363z" fill="#8B5C29" opacity=".15" p-id="19817"></path><path d="M588.627418 421.985617a16.172145 16.172145 0 0 1-3.788997-31.887636c56.312471-13.63792 82.76551-77.738198 83.028806-78.375869a16.176259 16.176259 0 0 1 21.022555-8.97264 16.151575 16.151575 0 0 1 9.001438 20.9773c-1.295911 3.262404-32.698095 80.18603-105.446008 97.810419a16.674054 16.674054 0 0 1-3.817794 0.448426z" fill="#FFFFFF" opacity=".73" p-id="19818"></path></svg>